<svg width="844" height="214" viewBox="0 0 844 214" fill="none" xmlns="http://www.w3.org/2000/svg">
<path d="M196.86 81.3192C196.86 57.2092 213.23 36.9092 249.52 36.9092C285.81 36.9092 297.1 53.0292 297.1 68.6292C297.1 69.0092 297.1 69.5192 296.97 70.4092H275.27V69.5192C275.27 63.0492 268.8 54.9292 250.27 54.9292C231.74 54.9292 221.85 66.4792 221.85 81.4492C221.85 95.5292 229.46 107.339 249.89 107.339C267.27 107.339 273.87 98.0792 273.87 92.1092V91.7292H246.97V78.7892H298.23V121.929H279.45C279.58 118.249 279.7 111.139 279.7 105.049H279.45C276.66 115.839 266.63 123.449 245.82 123.449C210.16 123.449 196.84 103.269 196.84 81.3192H196.86Z" fill="#FEFFFF"/>
<path d="M303.95 103.279C303.95 92.9995 310.42 85.0095 328.06 85.0095H363.21V84.1195C363.21 75.6195 358.13 72.1895 343.8 72.1895C330.6 72.1895 327.3 75.8695 327.3 79.5495C327.3 79.6795 327.3 80.0595 327.43 80.6895H306.11C305.98 79.5495 305.98 78.6595 305.98 78.4095C305.98 66.4795 316.77 57.9795 344.68 57.9795C372.59 57.9795 385.79 68.1295 385.79 86.2795V121.94H363.2C363.45 117.63 363.83 111.919 363.83 107.979H363.7C361.16 116.989 353.68 123.209 333.88 123.209C310.79 123.209 303.93 112.299 303.93 103.289L303.95 103.279ZM363.21 97.1895V96.6795H334.91C327.3 96.6795 324 97.9495 324 102.01C324 106.07 328.31 108.99 340.24 108.99C355.47 108.99 363.21 102.39 363.21 97.1895Z" fill="#FEFFFF"/>
<path d="M391.76 33.1094H414.35V121.929H391.76V33.1094Z" fill="#FEFFFF"/>
<path d="M421.2 33.1094H443.79V121.929H421.2V33.1094Z" fill="#FEFFFF"/>
<path d="M451.02 35.0098H473.61V51.2498H451.02V35.0098ZM451.02 59.2498H473.61V121.93H451.02V59.2498Z" fill="#FEFFFF"/>
<path d="M480.58 59.2495H503.17L502.92 77.5195H503.17C507.1 65.5895 516.75 57.9795 536.42 57.9795C560.66 57.9795 568.65 69.3995 568.65 84.6295V121.94H546.06V90.7195C546.06 82.2195 541.36 75.4895 526.14 75.4895C513.83 75.4895 503.17 80.8195 503.17 93.3795V121.93H480.58V59.2495Z" fill="#FEFFFF"/>
<path d="M575.49 103.529C575.49 89.699 588.43 87.029 602.52 87.029H642.36V85.379C642.36 73.709 633.86 67.359 614.19 67.359C594.52 67.359 588.3 72.559 588.3 79.409C588.3 79.789 588.3 80.169 588.43 81.059H577.77C577.64 79.919 577.64 79.159 577.64 78.899C577.64 66.459 589.57 57.959 614.18 57.959C640.45 57.959 653.52 69.509 653.52 86.509V121.909H642.35C642.73 117.599 642.98 110.619 643.11 105.789H642.98C640.06 116.699 629.91 123.049 607.7 123.049C585.49 123.049 575.47 114.039 575.47 103.509L575.49 103.529ZM642.37 95.409V95.159H603.92C592.88 95.159 586.15 95.919 586.15 103.279C586.15 107.719 589.07 113.689 608.36 113.689C632.22 113.689 642.37 104.549 642.37 95.419V95.409Z" fill="#FEFFFF"/>
<path d="M663.3 59.2495H674.47L674.34 77.0095H674.47C678.53 64.6995 689.82 57.9795 708.22 57.9795C734.11 57.9795 749.08 71.2995 749.08 89.9595C749.08 111.019 733.22 123.209 709.11 123.209C688.17 123.209 678.78 117.629 674.09 107.479H673.96C674.21 111.789 674.47 118.52 674.47 121.44V147.07H663.3V59.2595V59.2495ZM737.91 89.9495C737.91 77.5095 727.76 67.8695 707.71 67.8695C687.66 67.8695 674.84 78.7795 674.46 91.5995V93.4995C674.46 102.64 685.63 113.289 707.96 113.289C727.12 113.289 737.91 105.42 737.91 89.9395V89.9495Z" fill="#FEFFFF"/>
<path d="M758.21 59.2495H769.38L769.25 77.0095H769.38C773.44 64.6995 784.73 57.9795 803.13 57.9795C829.02 57.9795 843.99 71.2995 843.99 89.9595C843.99 111.019 828.13 123.209 804.02 123.209C783.08 123.209 773.69 117.629 769 107.479H768.87C769.12 111.789 769.38 118.52 769.38 121.44V147.07H758.21V59.2595V59.2495ZM832.82 89.9495C832.82 77.5095 822.67 67.8695 802.62 67.8695C782.57 67.8695 769.75 78.7795 769.37 91.5995V93.4995C769.37 102.64 780.54 113.289 802.87 113.289C822.03 113.289 832.82 105.42 832.82 89.9395V89.9495Z" fill="#FEFFFF"/>
<path d="M98.0102 36.3096C92.1702 44.2296 90.0502 53.5496 88.5402 61.7096C88.0502 64.3496 87.6302 67.0296 87.2202 69.6096C86.5502 73.8696 85.8502 78.2696 84.8502 82.4796C83.9902 86.1096 82.8602 88.7296 81.2402 90.6896C78.4702 82.3996 74.2402 74.5596 68.6202 67.3496C65.4702 63.2996 61.4802 58.7896 55.7502 56.0396C53.5002 54.9596 51.1502 54.4096 48.7502 54.4096C43.3902 54.4096 38.5202 57.2096 35.7102 61.8896C33.2302 66.0196 32.4902 70.4796 33.5102 75.1596C29.8102 76.6796 27.1102 79.5696 25.6202 83.6296C23.5902 89.2196 23.8802 95.0396 26.5002 101.42C23.0302 106.63 22.1502 112.77 23.9102 119.7C25.9502 127.79 29.9702 135.45 36.5602 143.78C36.9002 144.46 37.7002 146.6 38.9602 150.13C39.2502 150.94 39.3202 151.14 39.3802 151.3C42.6502 159.16 47.0202 165.97 52.3902 171.54C58.8702 178.26 66.1402 183.46 74.0602 187.04L23.0702 187.1C17.3002 187.1 12.6002 182.4 12.6002 176.63L12.4502 27.3896C12.4502 21.6196 17.1402 16.9096 22.9202 16.9096H33.1802L37.5602 25.0896L74.1902 25.0496H79.6102L82.4702 21.1296L85.5802 16.8496H90.7402C90.1402 18.8996 89.9402 21.1096 90.1902 23.3596C90.7602 28.6296 93.6502 33.3996 98.0102 36.3196V36.3096Z" fill="#FEFFFF"/>
<path d="M95.37 4.36927L22.9 4.44926C10.26 4.45926 -0.0099927 14.7593 7.29663e-06 27.3993L0.150009 176.639C0.170009 189.279 10.47 199.559 23.1 199.549L79.81 199.489C80.26 199.299 80.71 199.139 81.17 198.989C80.39 196.179 79.56 193.359 78.67 190.379L23.1 190.439C15.47 190.449 9.27001 184.249 9.26001 176.629L9.11001 27.3893C9.11001 19.7693 15.3 13.5693 22.93 13.5593L35.2 13.5393L39.58 21.7293L74.2 21.6893H77.92L79.77 19.1493L83.88 13.4893H92.15C92.95 12.0693 93.96 10.7793 95.19 9.65928C97.76 7.30928 100.66 6.07928 103.83 5.96928C101.16 4.91928 98.28 4.35927 95.36 4.36927H95.37Z" fill="#FEFFFF"/>
<path d="M169.12 50.2692C164.24 46.5092 158.96 43.4192 153.2 41.2792C150.95 40.4492 149.18 39.5392 148.18 37.1492C147.64 35.8592 147.37 34.9192 147.83 33.5292C149.64 28.0792 150.67 22.5492 148.96 16.8292C146.86 9.82922 141.03 6.80921 134.19 9.31921C132.2 10.0492 131.69 3.12922 124.94 0.889221C118.23 -1.88078 110.39 2.09924 109.28 8.96924C109.08 10.1892 108.81 10.2292 107.79 9.89923C93.3602 5.64923 88.1202 27.5592 100.61 34.0092C103.44 34.9592 103.34 35.4692 101.3 37.5192C95.5902 44.8092 93.4702 53.4792 91.8202 62.3292C89.0102 73.5192 90.6502 87.7692 80.7602 95.6592C79.6802 96.4292 79.3902 96.2092 79.0702 95.0692C74.6802 81.1992 67.2902 66.5492 54.2802 59.0592C43.5402 53.5492 33.2402 65.7792 37.1802 76.0692C37.4502 76.9192 37.6302 77.4192 36.3702 77.7392C26.5402 80.2892 26.1002 93.0092 29.8102 100.699C30.1102 101.409 30.2502 101.909 29.7402 102.609C20.9902 115.569 31.3302 131.199 39.3002 141.869C43.1602 151.899 47.0902 161.629 54.7902 169.219C61.8302 176.519 69.9902 182.169 79.5602 185.689C80.2602 185.949 80.8802 186.139 81.1702 187.079C81.3802 189.769 86.8502 201.339 84.0402 201.679C74.5102 202.739 70.2902 215.729 83.1702 213.799C103.03 213.799 122.88 213.809 142.74 213.819C145.25 213.819 146.52 212.919 146.84 210.749C147 199.969 132.05 201.449 124.59 200.939C127.28 208.959 135.58 204.319 140.85 208.779C134.06 209.749 126.41 208.799 119.32 209.109C118.22 209.109 116.72 207.359 116.91 206.269C119.1 204.749 121.19 205.039 119.96 201.509C118.67 197.749 117.32 193.999 115.92 190.279C115.14 188.189 115.09 188.179 117.34 187.639C159.41 176.829 175.96 128.219 155.16 91.5592C153.53 89.1692 153.33 88.2392 156.28 87.2092C164.48 81.6492 160.61 68.6092 154.05 62.6492C153.29 61.8892 152.81 61.3992 154.39 61.0292C157.89 59.5492 174.36 55.5792 169.11 50.2892L169.12 50.2692ZM99.0002 18.6392C102.64 10.7292 108.72 16.0392 113.93 18.0592C111.16 0.539234 127.76 0.919233 129.8 17.0892C130.01 18.9592 130.87 19.3592 131.81 17.5492C135.04 12.6692 141.98 11.3092 144.04 17.9092C145.19 19.8992 145.15 33.1892 141.77 31.1492C132.79 24.1892 119.83 24.3592 110.24 29.9192C104.04 34.0692 96.2802 24.9692 99.0102 18.6492L99.0002 18.6392ZM113.47 201.129C112.68 201.419 112.65 202.679 111.17 202.229C106.37 200.789 101.41 200.649 96.4302 201.259C94.9902 208.779 106.82 204.329 110.71 207.509C115.61 210.759 85.5902 208.469 83.4602 209.099C81.0602 209.559 80.6402 207.769 83.1102 207.289C85.9602 205.719 92.4702 206.759 90.9502 201.789C89.9502 197.769 88.8502 193.769 87.5502 189.829C86.7702 188.429 87.2102 187.639 88.7902 188.339C94.9502 189.569 101.25 190.189 107.51 189.339C108.99 189.129 109.76 189.469 110.24 190.989C111.18 193.949 112.35 196.829 113.39 199.749C113.54 200.189 114.19 200.879 113.48 201.129H113.47ZM159.01 122.059C159.22 122.249 159.2 122.469 159.06 122.689C159.41 125.419 159.36 128.149 159.08 130.879C159.24 131.209 159.17 131.509 158.92 131.769C153.13 195.339 66.1702 202.959 45.5502 144.989C40.6202 133.149 28.0002 121.769 32.3302 107.849C32.9702 106.389 33.4802 106.279 34.5202 107.469C37.2202 109.739 42.3102 117.459 45.8702 116.489C53.3002 112.789 29.8402 104.269 32.7302 89.1892C33.3002 82.8792 38.9602 80.8792 42.7602 83.3092C48.7502 87.5092 52.8502 94.0492 56.0202 100.539C56.8002 103.369 61.6402 102.549 60.7102 99.7592C57.4702 90.9992 51.4102 83.5592 44.0102 77.9092C35.4902 68.3192 48.5802 51.8692 63.4102 74.0492C66.2402 77.7392 78.1502 97.4592 73.8102 100.689C70.5702 103.309 55.3802 111.509 57.4702 115.709C59.6002 118.949 62.7402 114.639 64.3502 113.419C66.6502 111.479 69.0402 109.669 71.4802 107.929C97.2802 93.8492 92.5902 82.1492 98.0802 56.8492C104.67 16.3692 161.75 26.9592 142.17 62.9892C134.69 70.5792 134.36 85.4592 145.47 88.8092C153.06 89.9192 158.61 114.999 159.01 122.059ZM155.86 76.0792C156.62 85.4992 145.86 87.3592 142.36 79.9092C140 74.3292 143.34 68.6992 147.18 64.7892C149.86 62.0292 156.59 74.3592 155.86 76.0792ZM162.8 52.7092C146.21 58.9092 152.02 59.8792 150.98 46.4592C149.61 43.4492 166.33 52.2392 162.8 52.7092Z" fill="#FEFFFF"/>
<path d="M155.86 76.0796C155.94 81.0696 153.82 83.7896 150.28 84.4896C147.28 85.0896 143.68 82.9596 142.36 79.9096C140.93 76.6196 141.59 73.4796 143.02 70.4396C144.03 68.2996 145.56 66.4996 147.18 64.7896C147.66 64.2796 148.23 63.8496 148.88 64.4596C152.62 67.9696 155.63 71.8896 155.86 76.0696V76.0796Z" fill="#FEFFFF"/>
<path d="M162.8 52.7096C159.18 54.4096 155.46 55.8296 151.62 56.9096C150.95 57.0996 150.37 57.0196 150.57 56.0496C151.35 52.8796 151.39 49.6796 150.97 46.4496C150.87 45.6496 151.26 45.4896 151.95 45.7496C155.85 47.2296 159.48 49.2296 162.95 51.5296C163.62 51.9696 163.49 52.3696 162.79 52.6896L162.8 52.7096Z" fill="#FEFFFF"/>
<path d="M144.71 23.3391C144.83 25.9091 144.25 28.2791 143.47 30.6291C143.09 31.7691 142.7 31.8091 141.76 31.1391C138.63 28.8991 135.27 27.1891 131.42 26.3791C125.49 25.1291 119.8 25.8991 114.23 28.0491C112.85 28.5791 111.36 28.9691 110.23 29.9091C108.02 31.7691 105.91 31.0391 103.74 29.9691C99.87 28.0491 97.26 23.1191 99 18.6391C100.35 15.1591 103.89 13.4591 107.36 14.9091C109.29 15.7091 111.07 16.7691 112.88 17.7991C113.2 17.9891 113.57 18.3091 113.93 18.0591C114.28 17.8091 114.13 17.3391 114.05 16.9791C113.67 15.1991 113.64 13.3791 113.79 11.5891C114 8.91908 115.29 6.78906 117.67 5.50906C120.52 3.96906 124.89 5.61908 126.86 8.80908C128.26 11.0691 129.08 13.5391 129.58 16.1391C129.64 16.4591 129.68 16.7891 129.8 17.0991C130.02 17.6791 129.87 18.6091 130.59 18.7391C131.23 18.8591 131.41 17.9791 131.81 17.5491C132.48 16.8291 133.13 16.0891 133.84 15.3991C137.49 11.8091 142.48 13.0291 144.04 17.9091C144.61 19.6891 144.89 21.5191 144.72 23.3391H144.71Z" fill="#FEFFFF"/>
<path d="M135.49 47.0995C135.49 50.2695 133.19 52.4695 129.91 52.4295C126.96 52.3895 124.81 50.1595 124.84 47.1695C124.86 44.1695 127.27 41.9195 130.39 41.9595C133.18 41.9995 135.49 44.3295 135.49 47.0995Z" fill="#FEFFFF"/>
<path d="M133.08 168.24C129.12 170.94 124.5 173.23 119.14 174.89V100.77H141.7C141.7 100.77 141.7 134.91 141.72 151.64C141.72 158.25 138.54 164.51 133.08 168.24Z" fill="#FEFFFF"/>
<path d="M113.59 176.319C107.17 177.599 98.4003 178.489 90.9803 177.109C90.9703 168.879 90.9803 122.439 91.0103 115.289H113.57C113.59 122.729 113.61 167.789 113.6 176.319H113.59Z" fill="#FEFFFF"/>
<path d="M85.4103 175.889C80.5503 174.579 76.2703 172.709 72.4903 170.459C66.4403 166.839 62.7903 160.239 62.8003 153.189C62.8003 145.019 62.8203 135.109 62.8203 130.199H85.3803C85.3803 138.019 85.4103 167.519 85.4003 175.899L85.4103 175.889Z" fill="#FEFFFF"/>
<path d="M214.19 152.949H217.48V173.109H233.58V175.979H214.19V152.949Z" fill="#FEFFFF"/>
<path d="M235.22 170.91C235.22 167.09 238.79 166.36 242.68 166.36H253.67V165.9C253.67 162.68 251.33 160.93 245.9 160.93C240.47 160.93 238.76 162.37 238.76 164.25C238.76 164.36 238.76 164.46 238.8 164.71H235.86C235.82 164.4 235.82 164.19 235.82 164.12C235.82 160.69 239.11 158.34 245.9 158.34C253.15 158.34 256.75 161.53 256.75 166.22V175.99H253.67C253.78 174.8 253.84 172.87 253.88 171.54H253.84C253.04 174.55 250.24 176.3 244.11 176.3C237.98 176.3 235.22 173.81 235.22 170.91ZM253.67 168.67V168.6H243.06C240.01 168.6 238.16 168.81 238.16 170.84C238.16 172.06 238.97 173.71 244.29 173.71C250.87 173.71 253.67 171.19 253.67 168.67Z" fill="#FEFFFF"/>
<path d="M268.75 167.34C268.75 162.44 272.5 158.34 279.99 158.34C287.48 158.34 290.28 161.95 290.28 165.48H287.34C287.31 163.17 285.34 161.07 279.99 161.07C274.64 161.07 271.83 163.83 271.83 167.34C271.83 170.56 273.89 173.61 279.74 173.61C285.59 173.61 287.41 171.51 287.44 169.27H290.38C290.38 172.67 287.58 176.34 279.74 176.34C271.9 176.34 268.75 171.72 268.75 167.35V167.34Z" fill="#FEFFFF"/>
<path d="M292.41 167.37C292.41 162.89 295.81 158.34 304.07 158.34C312.33 158.34 315.73 162.89 315.73 167.37C315.73 171.85 312.44 176.33 304.07 176.33C295.7 176.33 292.41 171.88 292.41 167.37ZM312.65 167.37C312.65 164.15 310.31 161.07 304.07 161.07C297.83 161.07 295.49 164.15 295.49 167.37C295.49 170.59 297.8 173.6 304.07 173.6C310.34 173.6 312.65 170.62 312.65 167.37Z" fill="#FEFFFF"/>
<path d="M318.1 158.69H321.18L321.14 163.77H321.21C322.64 160.09 325.59 158.34 331.29 158.34C338.68 158.34 341.41 161.91 341.41 166.18V175.98H338.33V166.98C338.33 163.34 336.51 161.07 330.52 161.07C325.73 161.07 321.17 163.48 321.17 168.31V175.98H318.09V158.69H318.1Z" fill="#FEFFFF"/>
<path d="M345.93 169.26V161.419H342.25V158.69H345.16C345.79 158.69 346 158.379 346.07 157.529L346.28 154.77H349.01V158.69H359.65V161.419H349.01V169.02C349.01 171.82 350.34 173.399 355.35 173.399C356.82 173.399 358.71 173.16 359.59 172.94V175.599C358.92 175.809 357.14 176.13 355.25 176.13C348.39 176.13 345.94 173.19 345.94 169.27L345.93 169.26Z" fill="#FEFFFF"/>
<path d="M361.19 170.91C361.19 167.09 364.76 166.36 368.65 166.36H379.64V165.9C379.64 162.68 377.3 160.93 371.87 160.93C366.44 160.93 364.73 162.37 364.73 164.25C364.73 164.36 364.73 164.46 364.77 164.71H361.83C361.79 164.4 361.79 164.19 361.79 164.12C361.79 160.69 365.08 158.34 371.87 158.34C379.12 158.34 382.72 161.53 382.72 166.22V175.99H379.64C379.75 174.8 379.81 172.87 379.85 171.54H379.81C379.01 174.55 376.21 176.3 370.08 176.3C363.95 176.3 361.19 173.81 361.19 170.91ZM379.63 168.67V168.6H369.02C365.97 168.6 364.12 168.81 364.12 170.84C364.12 172.06 364.93 173.71 370.25 173.71C376.83 173.71 379.63 171.19 379.63 168.67Z" fill="#FEFFFF"/>
<path d="M388.31 171.75H388.27C388.31 173.22 388.41 174.999 388.48 175.979H385.4V151.479H388.48V160.899C388.48 161.699 388.45 162.89 388.45 163.56H388.52C389.5 160.48 392.13 158.349 397.94 158.349C405.22 158.349 409.07 162.229 409.07 167.099C409.07 172.459 404.94 176.339 398.32 176.339C391.7 176.339 389.18 174.52 388.31 171.76V171.75ZM405.99 167.089C405.99 164.049 403.65 161.07 397.8 161.07C392.3 161.07 388.49 164.079 388.49 167.789V168.099C388.49 170.619 391.57 173.599 397.73 173.599C403.33 173.599 405.99 170.899 405.99 167.089Z" fill="#FEFFFF"/>
<path d="M411.52 152.289H415.02V155.999H411.52V152.289ZM411.73 158.689H414.81V175.979H411.73V158.689Z" fill="#FEFFFF"/>
<path d="M417.96 151.479H421.04V175.979H417.96V151.479Z" fill="#FEFFFF"/>
<path d="M423.98 152.289H427.48V155.999H423.98V152.289ZM424.19 158.689H427.27V175.979H424.19V158.689Z" fill="#FEFFFF"/>
<path d="M429.93 167.13C429.93 162.19 434.03 158.339 441.38 158.339C446.7 158.339 449.68 159.769 450.48 162.609H450.51V151.479H453.59V175.979H450.51C450.62 174.409 450.65 172.59 450.69 171.08H450.62C449.74 174.27 446.66 176.33 441.38 176.33C434.17 176.33 429.93 172.76 429.93 167.12V167.13ZM450.51 167.37V166.81C450.51 163.52 447.6 161.07 441.37 161.07C435.77 161.07 433 163.66 433 167.12C433 171.11 436.12 173.599 441.37 173.599C447.57 173.599 450.51 169.99 450.51 167.37Z" fill="#FEFFFF"/>
<path d="M456.28 170.91C456.28 167.09 459.85 166.36 463.74 166.36H474.73V165.9C474.73 162.68 472.39 160.93 466.96 160.93C461.53 160.93 459.82 162.37 459.82 164.25C459.82 164.36 459.82 164.46 459.86 164.71H456.92C456.88 164.4 456.88 164.19 456.88 164.12C456.88 160.69 460.17 158.34 466.96 158.34C474.21 158.34 477.81 161.53 477.81 166.22V175.99H474.73C474.84 174.8 474.9 172.87 474.94 171.54H474.9C474.1 174.55 471.3 176.3 465.17 176.3C459.04 176.3 456.28 173.81 456.28 170.91ZM474.73 168.67V168.6H464.12C461.07 168.6 459.22 168.81 459.22 170.84C459.22 172.06 460.03 173.71 465.35 173.71C471.93 173.71 474.73 171.19 474.73 168.67Z" fill="#FEFFFF"/>
<path d="M480.01 167.13C480.01 162.19 484.11 158.339 491.46 158.339C496.78 158.339 499.76 159.769 500.56 162.609H500.59V151.479H503.67V175.979H500.59C500.7 174.409 500.73 172.59 500.77 171.08H500.7C499.82 174.27 496.74 176.33 491.46 176.33C484.25 176.33 480.01 172.76 480.01 167.12V167.13ZM500.59 167.37V166.81C500.59 163.52 497.68 161.07 491.45 161.07C485.85 161.07 483.08 163.66 483.08 167.12C483.08 171.11 486.2 173.599 491.45 173.599C497.65 173.599 500.59 169.99 500.59 167.37Z" fill="#FEFFFF"/>
<path d="M515.99 167.13C515.99 162.19 520.09 158.339 527.44 158.339C532.76 158.339 535.74 159.769 536.54 162.609H536.57V151.479H539.65V175.979H536.57C536.68 174.409 536.71 172.59 536.75 171.08H536.68C535.8 174.27 532.72 176.33 527.44 176.33C520.23 176.33 515.99 172.76 515.99 167.12V167.13ZM536.57 167.37V166.81C536.57 163.52 533.66 161.07 527.43 161.07C521.83 161.07 519.06 163.66 519.06 167.12C519.06 171.11 522.18 173.599 527.43 173.599C533.63 173.599 536.57 169.99 536.57 167.37Z" fill="#FEFFFF"/>
<path d="M564.12 168.18H545.29C545.54 171.15 547.5 173.74 553.66 173.74C558.91 173.74 560.84 172.06 561.19 170.38H564.13C563.85 173.18 560.84 176.33 553.66 176.33C544.73 176.33 542.18 171.68 542.18 167.47C542.18 161.97 546.42 158.34 553.49 158.34C560.56 158.34 564.13 161.66 564.13 166.85V168.18H564.12ZM561.18 165.84C561.18 162.93 558.8 160.94 553.51 160.94C548.61 160.94 545.98 162.73 545.39 165.95H561.18V165.84Z" fill="#FEFFFF"/>
<path d="M578.25 169.26V161.419H574.57V158.69H577.48C578.11 158.69 578.32 158.379 578.39 157.529L578.6 154.77H581.33V158.69H591.97V161.419H581.33V169.02C581.33 171.82 582.66 173.399 587.67 173.399C589.14 173.399 591.03 173.16 591.91 172.94V175.599C591.24 175.809 589.46 176.13 587.57 176.13C580.71 176.13 578.26 173.19 578.26 169.27L578.25 169.26Z" fill="#FEFFFF"/>
<path d="M594.21 168.319V158.699H597.29V167.729C597.29 171.269 599.11 173.609 604.89 173.609C610.07 173.609 614.45 170.739 614.45 165.769V158.699H617.53V175.989H614.45C614.52 174.589 614.62 172.069 614.62 170.319H614.55C613.6 174.549 610 176.339 604.4 176.339C597.29 176.339 594.21 172.599 594.21 168.319Z" fill="#FEFFFF"/>
<path d="M619.9 170.25H622.84C622.84 171.96 623.79 173.75 630.05 173.75C636.31 173.75 637.75 172.46 637.75 170.85C637.75 170.05 637.47 169.41 636.35 169.1C635.23 168.78 632.15 168.71 629.63 168.64C625.92 168.53 623.15 168.11 621.79 167.41C620.5 166.75 619.9 165.42 619.9 164.02C619.9 160.63 623.68 158.35 630.05 158.35C638.17 158.35 639.85 161.39 639.85 164.55H636.91C636.88 162.45 635.83 160.94 630.12 160.94C625.5 160.94 622.98 161.85 622.98 163.91C622.98 164.68 623.29 165.24 624.35 165.56C625.61 165.94 628.2 165.98 631.28 166.12C634.74 166.26 636.95 166.44 638.49 167.07C640.14 167.77 640.84 169.24 640.84 170.78C640.84 173.33 638.77 176.34 630.06 176.34C621.35 176.34 619.91 172.8 619.91 170.25H619.9Z" fill="#FEFFFF"/>
<path d="M676.15 177.699C676.15 180.779 673.49 183.619 664.53 183.619C654.8 183.619 652.38 181.099 652.38 178.229C652.38 176.199 654.09 174.769 656.93 174.869L656.97 174.829C655.85 173.949 655.5 172.799 655.5 171.959C655.5 170.629 655.88 169.609 656.69 169.089V169.049C654.69 168.069 653.57 166.489 653.57 164.289C653.57 161.069 656.51 158.339 663.23 158.339C665.85 158.339 668.03 158.759 669.64 159.529L669.67 159.459C669.32 159.149 669.04 158.509 669.04 157.889C669.04 156.559 670.2 155.369 672.89 155.369C673.77 155.369 674.57 155.509 674.92 155.619V158.239C674.57 158.129 673.8 157.959 673.03 157.959C671.6 157.959 671.07 158.769 671.07 159.429C671.07 159.889 671.18 160.269 671.45 160.759C672.4 161.709 672.92 162.889 672.92 164.299C672.92 167.629 669.84 170.249 663.22 170.249C661.47 170.249 659.93 170.069 658.6 169.759C658.43 169.969 658.07 170.529 658.07 171.299C658.07 172.379 658.84 173.359 660.9 173.359H669.3C674.69 173.359 676.13 175.599 676.13 177.699H676.15ZM673.07 177.979C673.07 176.789 672.12 175.949 668.41 175.949H661.09C656.78 175.949 655.45 176.759 655.45 178.259C655.45 179.869 657.55 181.029 664.52 181.029C671.03 181.029 673.06 179.939 673.06 177.989L673.07 177.979ZM656.51 164.289C656.51 166.389 658.68 167.649 663.23 167.649C667.78 167.649 669.99 166.209 669.99 164.289C669.99 162.259 667.71 160.929 663.23 160.929C658.75 160.929 656.51 162.469 656.51 164.289Z" fill="#FEFFFF"/>
<path d="M677.3 170.91C677.3 167.09 680.87 166.36 684.76 166.36H695.75V165.9C695.75 162.68 693.41 160.93 687.98 160.93C682.55 160.93 680.84 162.37 680.84 164.25C680.84 164.36 680.84 164.46 680.88 164.71H677.94C677.9 164.4 677.9 164.19 677.9 164.12C677.9 160.69 681.19 158.34 687.98 158.34C695.23 158.34 698.83 161.53 698.83 166.22V175.99H695.75C695.86 174.8 695.92 172.87 695.96 171.54H695.92C695.12 174.55 692.32 176.3 686.19 176.3C680.06 176.3 677.3 173.81 677.3 170.91ZM695.75 168.67V168.6H685.14C682.09 168.6 680.24 168.81 680.24 170.84C680.24 172.06 681.05 173.71 686.37 173.71C692.95 173.71 695.75 171.19 695.75 168.67Z" fill="#FEFFFF"/>
<path d="M701.52 151.479H704.6V175.979H701.52V151.479Z" fill="#FEFFFF"/>
<path d="M707.61 151.479H710.69V175.979H707.61V151.479Z" fill="#FEFFFF"/>
<path d="M713.63 152.289H717.13V155.999H713.63V152.289ZM713.84 158.689H716.92V175.979H713.84V158.689Z" fill="#FEFFFF"/>
<path d="M719.93 158.69H723.01L722.97 163.77H723.04C724.47 160.09 727.42 158.34 733.12 158.34C740.51 158.34 743.24 161.91 743.24 166.18V175.98H740.16V166.98C740.16 163.34 738.34 161.07 732.35 161.07C727.56 161.07 723 163.48 723 168.31V175.98H719.92V158.69H719.93Z" fill="#FEFFFF"/>
<path d="M745.62 170.91C745.62 167.09 749.19 166.36 753.08 166.36H764.07V165.9C764.07 162.68 761.73 160.93 756.3 160.93C750.87 160.93 749.16 162.37 749.16 164.25C749.16 164.36 749.16 164.46 749.2 164.71H746.26C746.22 164.4 746.22 164.19 746.22 164.12C746.22 160.69 749.51 158.34 756.3 158.34C763.55 158.34 767.15 161.53 767.15 166.22V175.99H764.07C764.18 174.8 764.24 172.87 764.28 171.54H764.24C763.44 174.55 760.64 176.3 754.51 176.3C748.38 176.3 745.62 173.81 745.62 170.91ZM764.07 168.67V168.6H753.46C750.41 168.6 748.56 168.81 748.56 170.84C748.56 172.06 749.37 173.71 754.69 173.71C761.27 173.71 764.07 171.19 764.07 168.67Z" fill="#FEFFFF"/>
<path d="M769.35 170.25H772.29C772.29 171.96 773.24 173.75 779.5 173.75C785.76 173.75 787.2 172.46 787.2 170.85C787.2 170.05 786.92 169.41 785.8 169.1C784.68 168.78 781.6 168.71 779.08 168.64C775.37 168.53 772.6 168.11 771.24 167.41C769.95 166.75 769.35 165.42 769.35 164.02C769.35 160.63 773.13 158.35 779.5 158.35C787.62 158.35 789.3 161.39 789.3 164.55H786.36C786.33 162.45 785.28 160.94 779.57 160.94C774.95 160.94 772.43 161.85 772.43 163.91C772.43 164.68 772.74 165.24 773.8 165.56C775.06 165.94 777.65 165.98 780.73 166.12C784.19 166.26 786.4 166.44 787.94 167.07C789.59 167.77 790.29 169.24 790.29 170.78C790.29 173.33 788.22 176.34 779.51 176.34C770.8 176.34 769.36 172.8 769.36 170.25H769.35Z" fill="#FEFFFF"/>
<path d="M794.69 171.819H798.19V175.979H794.69V171.819Z" fill="#FEFFFF"/>
</svg>
