<svg width="144" height="214" viewBox="0 0 144 214" fill="none" xmlns="http://www.w3.org/2000/svg">
<path d="M142.715 50.2692C137.835 46.5092 132.555 43.4192 126.795 41.2792C124.545 40.4492 122.775 39.5392 121.775 37.1492C121.235 35.8592 120.965 34.9192 121.425 33.5292C123.235 28.0792 124.265 22.5492 122.555 16.8292C120.455 9.82922 114.625 6.80921 107.785 9.31921C105.795 10.0492 105.285 3.12922 98.5349 0.889221C91.8249 -1.88078 83.9849 2.09924 82.8749 8.96924C82.6749 10.1892 82.4049 10.2292 81.3849 9.89923C66.9549 5.64923 61.7149 27.5592 74.2049 34.0092C77.0349 34.9592 76.9349 35.4692 74.8949 37.5192C69.1849 44.8092 67.0649 53.4792 65.4149 62.3292C62.6049 73.5192 64.2449 87.7692 54.3549 95.6592C53.2749 96.4292 52.9849 96.2092 52.6649 95.0692C48.2749 81.1992 40.8849 66.5492 27.8749 59.0592C17.1349 53.5492 6.83492 65.7792 10.7749 76.0692C11.0449 76.9192 11.2249 77.4192 9.96492 77.7392C0.134921 80.2892 -0.305076 93.0092 3.40492 100.699C3.70492 101.409 3.84492 101.909 3.33492 102.609C-5.41508 115.569 4.92491 131.199 12.8949 141.869C16.7549 151.899 20.6849 161.629 28.3849 169.219C35.4249 176.519 43.5849 182.169 53.1549 185.689C53.8549 185.949 54.4749 186.139 54.7649 187.079C54.9749 189.769 60.4449 201.339 57.6349 201.679C48.1049 202.739 43.8849 215.729 56.7649 213.799C76.6249 213.799 96.4749 213.809 116.335 213.819C118.845 213.819 120.115 212.919 120.435 210.749C120.595 199.969 105.645 201.449 98.1849 200.939C100.875 208.959 109.175 204.319 114.445 208.779C107.655 209.749 100.005 208.799 92.9149 209.109C91.8149 209.109 90.3149 207.359 90.5049 206.269C92.6949 204.749 94.7849 205.039 93.5549 201.509C92.2649 197.749 90.9149 193.999 89.5149 190.279C88.7349 188.189 88.6849 188.179 90.9349 187.639C133.005 176.829 149.555 128.219 128.755 91.5592C127.125 89.1692 126.925 88.2392 129.875 87.2092C138.075 81.6492 134.205 68.6092 127.645 62.6492C126.885 61.8892 126.405 61.3992 127.985 61.0292C131.485 59.5492 147.955 55.5792 142.705 50.2892L142.715 50.2692ZM72.5949 18.6392C76.2349 10.7292 82.3149 16.0392 87.5249 18.0592C84.7549 0.539234 101.355 0.919233 103.395 17.0892C103.605 18.9592 104.465 19.3592 105.405 17.5492C108.635 12.6692 115.575 11.3092 117.635 17.9092C118.785 19.8992 118.745 33.1892 115.365 31.1492C106.385 24.1892 93.4249 24.3592 83.8349 29.9192C77.6349 34.0692 69.8749 24.9692 72.6049 18.6492L72.5949 18.6392ZM87.0649 201.129C86.2749 201.419 86.2449 202.679 84.7649 202.229C79.9649 200.789 75.0049 200.649 70.0249 201.259C68.5849 208.779 80.4149 204.329 84.3049 207.509C89.2049 210.759 59.1849 208.469 57.0549 209.099C54.6549 209.559 54.2349 207.769 56.7049 207.289C59.5549 205.719 66.0649 206.759 64.5449 201.789C63.5449 197.769 62.4449 193.769 61.1449 189.829C60.3649 188.429 60.8049 187.639 62.3849 188.339C68.5449 189.569 74.8449 190.189 81.1049 189.339C82.5849 189.129 83.3549 189.469 83.8349 190.989C84.7749 193.949 85.9449 196.829 86.9849 199.749C87.1349 200.189 87.7849 200.879 87.0749 201.129H87.0649ZM132.605 122.059C132.815 122.249 132.795 122.469 132.655 122.689C133.005 125.419 132.955 128.149 132.675 130.879C132.835 131.209 132.765 131.509 132.515 131.769C126.725 195.339 39.7649 202.959 19.1449 144.989C14.2149 133.149 1.59491 121.769 5.92491 107.849C6.56491 106.389 7.07491 106.279 8.11491 107.469C10.8149 109.739 15.9049 117.459 19.4649 116.489C26.8949 112.789 3.43492 104.269 6.32492 89.1892C6.89492 82.8792 12.5549 80.8792 16.3549 83.3092C22.3449 87.5092 26.4449 94.0492 29.6149 100.539C30.3949 103.369 35.2349 102.549 34.3049 99.7592C31.0649 90.9992 25.0049 83.5592 17.6049 77.9092C9.08492 68.3192 22.1749 51.8692 37.0049 74.0492C39.8349 77.7392 51.7449 97.4592 47.4049 100.689C44.1649 103.309 28.9749 111.509 31.0649 115.709C33.1949 118.949 36.3349 114.639 37.9449 113.419C40.2449 111.479 42.6349 109.669 45.0749 107.929C70.8749 93.8492 66.1849 82.1492 71.6749 56.8492C78.2649 16.3692 135.345 26.9592 115.765 62.9892C108.285 70.5792 107.955 85.4592 119.065 88.8092C126.655 89.9192 132.205 114.999 132.605 122.059ZM129.455 76.0792C130.215 85.4992 119.455 87.3592 115.955 79.9092C113.595 74.3292 116.935 68.6992 120.775 64.7892C123.455 62.0292 130.185 74.3592 129.455 76.0792ZM136.395 52.7092C119.805 58.9092 125.615 59.8792 124.575 46.4592C123.205 43.4492 139.925 52.2392 136.395 52.7092Z" fill="#FEFFFF"/>
<path d="M129.455 76.0796C129.535 81.0696 127.415 83.7896 123.875 84.4896C120.875 85.0896 117.275 82.9596 115.955 79.9096C114.525 76.6196 115.185 73.4796 116.615 70.4396C117.625 68.2996 119.155 66.4996 120.775 64.7896C121.255 64.2796 121.825 63.8496 122.475 64.4596C126.215 67.9696 129.225 71.8896 129.455 76.0696V76.0796Z" fill="#FEFFFF"/>
<path d="M136.395 52.7096C132.775 54.4096 129.055 55.8296 125.215 56.9096C124.545 57.0996 123.965 57.0196 124.165 56.0496C124.945 52.8796 124.985 49.6796 124.565 46.4496C124.465 45.6496 124.855 45.4896 125.545 45.7496C129.445 47.2296 133.075 49.2296 136.545 51.5296C137.215 51.9696 137.085 52.3696 136.385 52.6896L136.395 52.7096Z" fill="#FEFFFF"/>
<path d="M118.305 23.3391C118.425 25.9091 117.845 28.2791 117.065 30.6291C116.685 31.7691 116.295 31.8091 115.355 31.1391C112.225 28.8991 108.865 27.1891 105.015 26.3791C99.0847 25.1291 93.3947 25.8991 87.8247 28.0491C86.4447 28.5791 84.9547 28.9691 83.8247 29.9091C81.6147 31.7691 79.5047 31.0391 77.3347 29.9691C73.4647 28.0491 70.8547 23.1191 72.5947 18.6391C73.9447 15.1591 77.4847 13.4591 80.9547 14.9091C82.8847 15.7091 84.6647 16.7691 86.4747 17.7991C86.7947 17.9891 87.1647 18.3091 87.5247 18.0591C87.8747 17.8091 87.7247 17.3391 87.6447 16.9791C87.2647 15.1991 87.2347 13.3791 87.3847 11.5891C87.5947 8.91908 88.8847 6.78906 91.2647 5.50906C94.1147 3.96906 98.4847 5.61908 100.455 8.80908C101.855 11.0691 102.675 13.5391 103.175 16.1391C103.235 16.4591 103.275 16.7891 103.395 17.0991C103.615 17.6791 103.465 18.6091 104.185 18.7391C104.825 18.8591 105.005 17.9791 105.405 17.5491C106.075 16.8291 106.725 16.0891 107.435 15.3991C111.085 11.8091 116.075 13.0291 117.635 17.9091C118.205 19.6891 118.485 21.5191 118.315 23.3391H118.305Z" fill="#FEFFFF"/>
<path d="M109.085 47.0995C109.085 50.2695 106.785 52.4695 103.505 52.4295C100.555 52.3895 98.4049 50.1595 98.4349 47.1695C98.4549 44.1695 100.865 41.9195 103.985 41.9595C106.775 41.9995 109.085 44.3295 109.085 47.0995Z" fill="#FEFFFF"/>
<path d="M106.675 168.24C102.715 170.94 98.0949 173.23 92.7349 174.89V100.77H115.295C115.295 100.77 115.295 134.91 115.315 151.64C115.315 158.25 112.135 164.51 106.675 168.24Z" fill="#FEFFFF"/>
<path d="M87.185 176.319C80.765 177.599 71.995 178.489 64.575 177.109C64.565 168.879 64.575 122.439 64.605 115.289H87.165C87.185 122.729 87.205 167.789 87.195 176.319H87.185Z" fill="#FEFFFF"/>
<path d="M59.005 175.889C54.145 174.579 49.865 172.709 46.085 170.459C40.035 166.839 36.385 160.239 36.395 153.189C36.395 145.019 36.415 135.109 36.415 130.199H58.975C58.975 138.019 59.005 167.519 58.995 175.899L59.005 175.889Z" fill="#FEFFFF"/>
</svg>
